<svg xmlns="http://www.w3.org/2000/svg" aria-hidden="true">
    <defs>
        <symbol id="icon-Logo-leleka" viewBox="0 0 103 32">
<path fill="#33adc1" style="fill: var(--color1, #33adc1)" d="M31.596 15.799c0 8.724-7.073 15.797-15.797 15.797q-0.492 0-0.976-0.029c-1.933-0.12-3.731-0.571-5.381-1.297l0.101 0.040c-5.613-2.423-9.543-8.008-9.543-14.511 0-8.725 7.073-15.799 15.799-15.799 8.724 0 15.797 7.073 15.797 15.799z"></path>
<path fill="#eae0d3" style="fill: var(--color2, #eae0d3)" d="M14.824 31.567c-1.933-0.12-3.731-0.571-5.381-1.297l0.101 0.040c6.117-8.248-4.473-16.104-4.473-16.104l5.34-1.317s11.427 6.971 4.413 18.68z"></path>
<path fill="#d6c8b0" style="fill: var(--color3, #d6c8b0)" d="M10.927 30.831q-0.707-0.229-1.383-0.52c6.117-8.248-4.473-16.104-4.473-16.104l1.543-0.381c0.373 0.28 0.899 0.644 1.432 1.144 2.787 2.601 6.827 8.139 2.881 15.861z"></path>
<path fill="#eae0d3" style="fill: var(--color2, #eae0d3)" d="M14.221 8.792c-0.002 3.409-2.767 6.172-6.176 6.172-3.411 0-6.176-2.765-6.176-6.176 0-1.031 0.252-2.002 0.699-2.857l-0.016 0.034-2.552-2.549 4.183 0.559-2.147-2.661 4.907 1.4-0.537-2.713s4.267 2.36 6.293 4.733q0.231 0.264 0.431 0.555c0.683 0.975 1.091 2.185 1.091 3.491 0 0.004 0 0.009 0 0.013v-0.001z"></path>
<path fill="#2f373b" style="fill: var(--color4, #2f373b)" d="M11.365 7.531c0 0.836-0.678 1.513-1.513 1.513s-1.513-0.678-1.513-1.513v0c0-0.836 0.678-1.513 1.513-1.513s1.513 0.678 1.513 1.513v0z"></path>
<path fill="#ff648d" style="fill: var(--color5, #ff648d)" d="M25.543 8.531c-0.621 0.325-1.276 0.251-1.8 0.077-0.616-0.204-1.053-0.543-1.053-0.543s-2.211-2.171-0.509-3.116c0.513-0.285 0.929-0.284 1.26-0.143 0.765 0.328 1.072 1.403 1.072 1.403s0.616-1.597 1.977-1.113c1.363 0.483 0.4 2.732-0.947 3.435z"></path>
<path fill="#ea2f69" style="fill: var(--color6, #ea2f69)" d="M23.741 8.608c-0.613-0.204-1.052-0.543-1.052-0.543s-2.211-2.171-0.509-3.116c0.513-0.285 0.929-0.284 1.26-0.143-0.753-0.043-0.777 2.733 0.301 3.8z"></path>
<path fill="#fff" style="fill: var(--color7, #fff)" d="M10.933 7.048c0 0.008 0.001 0.016 0.001 0.025 0 0.261-0.212 0.473-0.473 0.473s-0.473-0.212-0.473-0.473c0-0.009 0-0.018 0.001-0.026l-0 0.001c0-0.261 0.212-0.473 0.473-0.473s0.473 0.212 0.473 0.473v0z"></path>
<path fill="#ff648d" style="fill: var(--color5, #ff648d)" d="M23.243 9.26c0 2.304-6.271 9.3-2.173 12.2 1.023 0.724 2.153 0.96 3.273 0.907 1.12 0.053 2.249-0.183 3.273-0.907 4.097-2.9-2.173-9.896-2.173-12.2z"></path>
<path fill="#ea2f69" style="fill: var(--color6, #ea2f69)" d="M24.173 22.373c-1.065 0.021-2.133-0.227-3.105-0.915-4.096-2.899 2.175-9.893 2.175-12.199h0.673c0 2.304-2.437 9.3-0.845 12.2 0.347 0.629 0.724 0.891 1.103 0.912zM24.173 22.373l0.168-0.007c-0.034 0.004-0.073 0.007-0.113 0.007-0.019 0-0.038-0.001-0.057-0.002l0.003 0zM24.511 22.373c-0.014 0.001-0.031 0.001-0.047 0.001-0.043 0-0.085-0.003-0.126-0.008l0.005 0.001q0.084 0.004 0.168 0.005z"></path>
<path fill="#ffd62c" style="fill: var(--color8, #ffd62c)" d="M28.464 8.853l-15.629 2.587s-0.547-0.827-0.744-1.924c-0.177-0.979-0.077-2.171 0.933-3.181z"></path>
<path fill="#ffb92e" style="fill: var(--color9, #ffb92e)" d="M28.465 8.853l-15.631 2.585s-0.545-0.827-0.744-1.924z"></path>
<path fill="#d6c8b0" style="fill: var(--color3, #d6c8b0)" d="M8.045 14.967c-0 0-0.001 0-0.001 0-3.411 0-6.176-2.765-6.176-6.176 0-1.031 0.253-2.003 0.7-2.858l-0.016 0.034-2.552-2.553 4.183 0.56-2.147-2.663 5 2.815s-3.087 1.136-3.087 4.728 4.096 6.112 4.096 6.112z"></path>
<path fill="#000" style="fill: var(--color10, #000)" d="M96.235 22.673q-1.28 0-2.295-0.631c-0.678-0.434-1.223-1.019-1.6-1.709l-0.012-0.024q-0.577-1.105-0.577-2.488t0.629-2.488c0.844-1.435 2.381-2.383 4.139-2.383 0.023 0 0.045 0 0.068 0l-0.003-0c0.024-0 0.052-0.001 0.080-0.001 0.875 0 1.695 0.241 2.395 0.66l-0.021-0.012q1.087 0.631 1.717 1.733 0.648 1.107 0.648 2.489h-0.683q0 1.383-0.596 2.487c-0.379 0.717-0.92 1.303-1.577 1.724l-0.018 0.011c-0.635 0.396-1.407 0.631-2.233 0.631-0.021 0-0.042-0-0.063-0l0.003 0zM96.587 21.097q0.893 0 1.595-0.421 0.7-0.437 1.103-1.173 0.404-0.753 0.403-1.681 0-0.947-0.403-1.683c-0.259-0.49-0.635-0.888-1.091-1.166l-0.013-0.007c-0.439-0.276-0.972-0.439-1.544-0.439-0.017 0-0.035 0-0.052 0l0.003-0q-0.876 0-1.595 0.439-0.7 0.42-1.12 1.173c-0.255 0.471-0.404 1.030-0.404 1.625 0 0.020 0 0.040 0.001 0.061l-0-0.003q0 0.928 0.403 1.68 0.42 0.737 1.121 1.175 0.72 0.421 1.595 0.421zM100.511 22.621c-0.007 0-0.014 0-0.022 0-0.242 0-0.462-0.093-0.626-0.246l0.001 0.001c-0.152-0.164-0.246-0.384-0.246-0.626 0-0.008 0-0.016 0-0.023l-0 0.001v-2.68l0.333-1.857 1.453 0.631v3.907c0 0.006 0 0.013 0 0.021 0 0.246-0.101 0.468-0.263 0.627l-0 0c-0.154 0.152-0.366 0.246-0.599 0.246-0.011 0-0.022-0-0.033-0.001l0.002 0zM90.468 22.393q-0.228 0.209-0.648 0.209-0.403-0.016-0.631-0.245l-4.256-4.571 4.013-4.484c0.161-0.164 0.382-0.27 0.627-0.28l0.002-0q0.421-0.036 0.648 0.173c0.16 0.141 0.27 0.336 0.298 0.557l0 0.004c0.002 0.021 0.004 0.046 0.004 0.071 0 0.185-0.075 0.352-0.197 0.473l-0 0-3.171 3.399 3.364 3.608q0.227 0.228 0.227 0.543 0 0.299-0.28 0.544zM83.532 22.621c-0.011 0.001-0.024 0.001-0.037 0.001-0.226 0-0.43-0.094-0.576-0.245l-0-0c-0.141-0.166-0.227-0.383-0.227-0.62 0-0.010 0-0.020 0-0.029l-0 0.001v-7.813q0-0.404 0.227-0.649c0.146-0.152 0.351-0.246 0.577-0.246 0.013 0 0.025 0 0.038 0.001l-0.002-0q0.404 0 0.648 0.245c0.162 0.153 0.264 0.37 0.264 0.611 0 0.014-0 0.027-0.001 0.040l0-0.002v2.925h2.243v1.647h-2.243v3.24c0 0.007 0 0.014 0 0.022 0 0.246-0.101 0.468-0.263 0.627l-0 0c-0.158 0.152-0.373 0.246-0.61 0.246-0.013 0-0.026-0-0.039-0.001l0.002 0zM76.136 22.673q-1.453 0-2.592-0.613c-0.738-0.414-1.337-0.996-1.759-1.696l-0.012-0.021q-0.631-1.103-0.631-2.521 0-1.439 0.596-2.523c0.398-0.722 0.97-1.305 1.66-1.706l0.021-0.011q1.069-0.631 2.453-0.631 1.367 0 2.347 0.613 0.981 0.596 1.489 1.664 0.527 1.051 0.527 2.435c0 0.005 0 0.011 0 0.017 0 0.213-0.087 0.405-0.228 0.543l-0 0c-0.144 0.131-0.336 0.211-0.547 0.211-0.011 0-0.022-0-0.033-0.001l0.002 0h-7.060v-1.4h7.008l-0.719 0.489c-0.003-0.567-0.132-1.103-0.36-1.583l0.010 0.023c-0.214-0.455-0.537-0.829-0.937-1.097l-0.010-0.006q-0.612-0.403-1.488-0.403-0.999 0-1.717 0.437-0.7 0.44-1.068 1.209c-0.233 0.483-0.369 1.049-0.369 1.648 0 0.024 0 0.049 0.001 0.073l-0-0.004q0 0.963 0.437 1.716c0.293 0.501 0.703 0.905 1.193 1.184l0.016 0.008q0.771 0.437 1.769 0.437 0.544 0 1.104-0.193 0.579-0.211 0.928-0.472c0.153-0.119 0.348-0.191 0.56-0.193h0c0.018-0.002 0.039-0.002 0.060-0.002 0.185 0 0.355 0.067 0.485 0.179l-0.001-0.001q0.299 0.263 0.315 0.577 0.020 0.316-0.28 0.543-0.596 0.473-1.489 0.772c-0.5 0.183-1.077 0.291-1.679 0.297l-0.003 0zM64.768 13.040q0.264 0 0.473 0.139c0.151 0.109 0.266 0.258 0.331 0.432l0.002 0.006 3.608 7.831q0.159 0.351 0.035 0.631c-0.089 0.18-0.235 0.321-0.415 0.401l-0.005 0.002q-0.385 0.176-0.667 0.088-0.28-0.087-0.472-0.439l-3.293-7.48h0.893l-3.399 7.48c-0.091 0.206-0.259 0.363-0.468 0.437l-0.006 0.002q-0.297 0.088-0.665-0.088c-0.202-0.087-0.365-0.232-0.471-0.415l-0.003-0.005q-0.123-0.263 0.053-0.613l3.627-7.831q0.261-0.579 0.84-0.579zM54.623 22.673q-1.453 0-2.592-0.613c-0.737-0.414-1.336-0.996-1.757-1.696l-0.012-0.021q-0.632-1.103-0.631-2.521 0-1.439 0.595-2.523c0.398-0.722 0.97-1.306 1.662-1.706l0.021-0.011q1.067-0.631 2.453-0.631 1.365 0 2.347 0.613 0.981 0.596 1.489 1.664 0.525 1.051 0.525 2.435c0 0.005 0 0.011 0 0.017 0 0.213-0.087 0.405-0.228 0.543l-0 0c-0.144 0.131-0.336 0.211-0.547 0.211-0.011 0-0.022-0-0.033-0.001l0.002 0h-7.060v-1.4h7.008l-0.719 0.489c-0.003-0.567-0.132-1.103-0.36-1.583l0.010 0.023c-0.214-0.455-0.536-0.828-0.936-1.097l-0.010-0.006q-0.613-0.403-1.489-0.403-1 0-1.716 0.437-0.701 0.44-1.069 1.209c-0.233 0.483-0.369 1.049-0.369 1.648 0 0.024 0 0.049 0.001 0.073l-0-0.004q0 0.963 0.439 1.716c0.293 0.501 0.702 0.905 1.192 1.184l0.016 0.008q0.772 0.437 1.769 0.437 0.544 0 1.104-0.193 0.579-0.211 0.928-0.472c0.153-0.119 0.348-0.191 0.56-0.193h0c0.018-0.002 0.039-0.002 0.060-0.002 0.185 0 0.355 0.067 0.485 0.179l-0.001-0.001q0.299 0.263 0.316 0.577 0.016 0.316-0.28 0.543-0.596 0.473-1.489 0.772c-0.5 0.183-1.078 0.291-1.68 0.297l-0.003 0zM37.501 22.604c-0.008 0-0.017 0-0.026 0-0.309 0-0.58-0.167-0.726-0.416l-0.002-0.004c-0.092-0.139-0.146-0.31-0.146-0.494 0-0.146 0.034-0.283 0.095-0.405l-0.002 0.005 4.923-11.756q0.263-0.613 0.859-0.613 0.631 0 0.859 0.613l4.94 11.791q0.192 0.489-0.053 0.893-0.227 0.387-0.735 0.385c-0.187-0.001-0.363-0.053-0.513-0.143l0.005 0.003c-0.148-0.105-0.263-0.248-0.331-0.415l-0.002-0.006-4.379-10.789h0.56l-4.484 10.791c-0.075 0.18-0.203 0.325-0.364 0.419l-0.004 0.002c-0.134 0.086-0.297 0.138-0.472 0.14h-0z"></path>
</symbol>
        <symbol id="icon-leleka" viewBox="0 0 32 32">
            <title>leleka</title>
            <path fill="#33adc1"
                d="M31.596 15.798c0 8.725-7.073 15.798-15.798 15.798q-.492 0-.975-.03a15.7 15.7 0 0 1-5.281-1.257C3.928 27.886-.001 22.301-.001 15.798-.001 7.073 7.072 0 15.797 0s15.798 7.073 15.798 15.798z"
                style="fill:var(--color1, #33adc1)" />
            <path fill="#eae0d3"
                d="M14.823 31.566a15.7 15.7 0 0 1-5.28-1.257c6.118-8.248-4.473-16.104-4.473-16.104l5.34-1.318s11.428 6.971 4.414 18.679z"
                style="fill:var(--color2, #eae0d3)" />
            <path fill="#d6c8b0"
                d="M10.927 30.83a16 16 0 0 1-1.384-.521c6.118-8.248-4.473-16.104-4.473-16.104l1.543-.381c.374.28.898.644 1.432 1.144 2.786 2.602 6.827 8.139 2.881 15.862z"
                style="fill:var(--color3, #d6c8b0)" />
            <path fill="#eae0d3"
                d="M14.222 8.792A6.176 6.176 0 1 1 2.553 5.967L.001 3.415l4.182.559-2.145-2.66 4.905 1.401L6.408.001s4.267 2.36 6.294 4.734q.23.264.43.554a6.15 6.15 0 0 1 1.091 3.505z"
                style="fill:var(--color2, #eae0d3)" />
            <path fill="#2f373b" d="M11.364 7.532a1.513 1.513 0 1 1-3.026 0 1.513 1.513 0 0 1 3.026 0"
                style="fill:var(--color4, #2f373b)" />
            <path fill="#ff648d"
                d="M25.542 8.53c-.621.324-1.276.251-1.801.077-.614-.203-1.052-.542-1.052-.542s-2.212-2.171-.51-3.116c.514-.285.93-.284 1.26-.142h.001c.764.328 1.071 1.402 1.071 1.402s.616-1.597 1.978-1.113c1.362.483.398 2.731-.947 3.435z"
                style="fill:var(--color5, #ff648d)" />
            <path fill="#ea2f69"
                d="M23.741 8.607c-.614-.203-1.052-.542-1.052-.542s-2.212-2.171-.51-3.116c.514-.285.93-.284 1.26-.142-.753-.042-.777 2.733.302 3.801z"
                style="fill:var(--color6, #ea2f69)" />
            <path fill="#fff" d="M10.934 7.048a.473.473 0 1 1-.947 0 .473.473 0 0 1 .947 0"
                style="fill:var(--color7, #fff)" />
            <path fill="#ff648d"
                d="M23.243 9.261c0 2.304-6.271 9.3-2.175 12.199 1.024.725 2.154.961 3.274.908 1.119.053 2.25-.183 3.274-.908 4.096-2.899-2.175-9.895-2.175-12.199z"
                style="fill:var(--color5, #ff648d)" />
            <path fill="#ea2f69"
                d="M24.173 22.373c-1.065.023-2.132-.225-3.105-.913-4.097-2.899 2.175-9.895 2.175-12.199h.672c0 2.304-2.437 9.3-.845 12.199.346.631.724.892 1.103.913"
                style="fill:var(--color6, #ea2f69)" />
            <path fill="#ea2f69"
                d="m24.173 22.373.168-.005a1 1 0 0 1-.168.005m.337 0a1 1 0 0 1-.168-.005q.084.004.168.005"
                style="fill:var(--color6, #ea2f69)" />
            <path fill="#ffd62c"
                d="m28.465 8.855-15.629 2.584s-.546-.827-.744-1.924c-.177-.978-.077-2.171.933-3.181l15.441 2.521z"
                style="fill:var(--color8, #ffd62c)" />
            <path fill="#ffb92e" d="m28.465 8.855-15.63 2.584s-.546-.827-.744-1.924z"
                style="fill:var(--color9, #ffb92e)" />
            <path fill="#d6c8b0"
                d="M8.045 14.968a6.176 6.176 0 0 1-5.493-9.001L0 3.415l4.182.559-2.145-2.66 5 2.815S3.949 5.264 3.949 8.856s4.097 6.113 4.097 6.113z"
                style="fill:var(--color3, #d6c8b0)" />
        </symbol>
        <symbol id="icon-book" viewBox="0 0 32 32">
            <title>book</title>
            <path
                d="M5.579 21.497q.542-.347 1.177-.527c.635-.18.877-.181 1.362-.181h1.27V2.531h-1.27q-1.07 0-1.805.739c-.735.739-.734 1.096-.734 1.809zm6.341-.707h13.441V2.532H11.92zM8.118 30.941q-2.106 0-3.588-1.483c-1.482-1.483-1.483-2.185-1.483-3.588V5.08q0-2.109 1.483-3.595C6.013-.001 6.714 0 8.118 0h17.17q1.084 0 1.844.76c.76.76.76 1.122.76 1.844v19.71q0 .373-.19.675c-.19.302-.29.344-.488.426q-.697.288-1.093.939c-.396.651-.396.935-.396 1.503s.131 1.067.394 1.498a2.22 2.22 0 0 0 1.09.928q.329.143.506.5c.177.357.177.526.177.864v.042q0 .518-.368.884c-.368.366-.546.366-.902.366H8.118zm-.017-2.532h15.771q-.321-.542-.5-1.197c-.179-.655-.178-.884-.178-1.341q0-.726.18-1.362c.18-.636.299-.819.536-1.187H8.103q-1.045 0-1.785.739c-.74.739-.739 1.096-.739 1.809q0 1.061.739 1.8c.739.739 1.087.739 1.782.739z" />
        </symbol>
        <symbol id="icon-bottom" viewBox="0 0 32 32">
            <title>bottom</title>
            <path
                d="M15.44 24.476q-.448 0-.845-.165c-.397-.165-.519-.287-.763-.531L.648 10.596q-.68-.68-.647-1.625c.033-.945.26-1.171.713-1.625q.68-.68 1.625-.68c.945 0 1.171.227 1.625.68l11.475 11.542L26.981 7.346q.68-.68 1.591-.647c.911.033 1.138.26 1.591.713s.68.995.68 1.625a2.22 2.22 0 0 1-.68 1.625L17.046 23.779q-.366.365-.763.531c-.397.166-.546.165-.845.165z" />
        </symbol>
        <symbol id="icon-burger" viewBox="0 0 32 32">
            <title>burger</title>
            <path d="M0 4.364h31.03v3.879H0zm0 9.697h31.03v3.879H0zm0 9.697h31.03v3.879H0z" />
        </symbol>
        <symbol id="icon-calendar" viewBox="0 0 32 32">
            <title>calendar</title>
            <path
                d="M10.675 22.006q-1.555 0-2.622-1.074c-1.067-1.074-1.067-1.592-1.067-2.629q0-1.556 1.074-2.622c1.074-1.066 1.592-1.067 2.629-1.067q1.554 0 2.621 1.074c1.067 1.074 1.067 1.592 1.067 2.629q0 1.555-1.074 2.621c-1.074 1.066-1.592 1.067-2.629 1.067zm-6.556 8.935q-1.052 0-1.823-.772c-.771-.772-.772-1.122-.772-1.823V4.891q0-1.055.772-1.83c.772-.775 1.122-.775 1.823-.775h2.394v-.985q0-.546.379-.924C7.271-.001 7.453 0 7.815 0q.56 0 .944.377c.384.377.384.559.384.924v.985h12.642v-.985q0-.546.38-.924c.38-.378.561-.377.923-.377q.56 0 .944.377c.384.377.384.559.384.924v.985h2.394q1.056 0 1.83.775c.774.775.775 1.126.775 1.83v23.455q0 1.052-.775 1.823c-.775.771-1.126.772-1.83.772H4.117zm0-2.596h22.693V12.046H4.119zm0-18.584h22.693v-4.87H4.119z" />
        </symbol>
        <symbol id="icon-checkmark" viewBox="0 0 32 32">
            <title>checkmark</title>
            <path d="m10.45 21.84-7.311-7.311L0 17.668l10.45 10.45L32 6.568l-3.139-3.139z" />
        </symbol>
        <symbol id="icon-close" viewBox="0 0 32 32">
            <title>close</title>
            <path stroke-width="2.286"
                d="M27.828 1.143c.376 0 .609.111.792.295s.294.416.295.79c0 .375-.111.609-.295.792L16.611 15.029 28.62 27.036c.184.184.295.417.295.792s-.111.609-.295.792-.417.295-.792.295-.609-.111-.792-.295L15.029 16.611 3.02 28.62c-.184.184-.417.295-.792.295s-.607-.111-.79-.295-.295-.417-.295-.792.111-.609.295-.792l12.007-12.007L1.438 3.02c-.184-.184-.295-.417-.295-.792s.111-.607.295-.79.415-.294.79-.295c.375 0 .609.111.792.295l12.009 12.007L27.036 1.438c.184-.184.417-.295.792-.295" />
        </symbol>
        <symbol id="icon-delete" viewBox="0 0 32 32">
            <title>delete</title>
            <path
                d="M6.461 31.011q-1.198 0-2.038-.837c-.84-.837-.84-1.236-.84-2.031V4.314H3.12q-.607 0-1.021-.416c-.414-.416-.413-.619-.413-1.026q0-.61.413-1.019c.413-.409.616-.408 1.021-.408h6.914q0-.617.414-1.031c.414-.414.616-.413 1.021-.413h8.579q.607 0 1.021.419c.414.419.413.621.413 1.025h6.924q.607 0 1.021.416c.414.416.413.619.413 1.026q0 .61-.413 1.019c-.413.409-.616.408-1.021.408h-.463v23.829q0 1.194-.84 2.031c-.84.837-1.24.837-2.038.837zM25.064 4.313H6.461v23.829h18.603zm-9.302 13.945 3.962 3.994q.441.451 1.071.467c.63.016.78-.138 1.081-.446q.441-.475.441-1.077c0-.602-.147-.753-.441-1.053l-3.962-4.036 3.962-4.046q.441-.441.441-1.05c0-.609-.147-.759-.441-1.06q-.451-.441-1.081-.441c-.63 0-.777.147-1.071.441l-3.962 4.004-3.92-4.004q-.44-.441-1.066-.441c-.626 0-.775.147-1.076.441q-.441.451-.441 1.081c0 .63.147.777.441 1.071l3.952 4.004L9.7 20.111q-.451.44-.446 1.066c.005.626.152.775.446 1.076q.454.441 1.077.441c.623 0 .774-.147 1.075-.441l3.909-3.994z" />
        </symbol>
        <symbol id="icon-dumb-bell" viewBox="0 0 32 32">
            <title>dumb-bell</title>
            <path
                d="m6.98 8.904-4.764 4.763q-.399.399-.921.394c-.522-.005-.656-.138-.922-.403Q.015 13.3 0 12.757c-.015-.543.104-.676.343-.941l1.344-1.375L.411 9.156q-.408-.408-.408-.96c0-.552.136-.688.408-.96l2.455-2.455-.716-.706q-.417-.408-.418-.96c-.001-.552.136-.684.408-.95q.368-.378.935-.393c.567-.015.703.107.975.353l.746.725L7.211.435q.408-.408.96-.408c.552 0 .691.136.969.408l1.276 1.276L11.8.357q.398-.358.926-.358c.528 0 .657.129.916.388q.399.408.398.931c-.001.523-.133.656-.398.921L8.888 6.993l14.964 14.964 4.754-4.754q.398-.398.926-.398c.528 0 .661.133.926.398q.358.358.373.906c.015.548-.104.677-.343.936l-1.354 1.384 1.276 1.276a1.347 1.347 0 0 1 0 1.929l-2.495 2.495.725.706q.408.408.408.96c0 .552-.136.684-.408.95q-.408.408-.955.408c-.547 0-.683-.139-.955-.418l-.706-.716-2.415 2.415q-.408.408-.96.408c-.552 0-.688-.136-.96-.408l-1.285-1.276-1.384 1.354q-.398.358-.921.353c-.523-.005-.653-.134-.912-.393q-.408-.399-.408-.922c0-.523.136-.659.408-.931l4.754-4.754L6.977 8.901z" />
        </symbol>
        <symbol id="icon-edit" viewBox="0 0 32 32">
            <title>edit</title>
            <path
                d="M2.595 31.074q-1.052 0-1.823-.772C.001 29.53 0 29.18 0 28.479V5.786q0-1.055.772-1.83c.772-.775 1.122-.775 1.823-.775h12.294q.653 0 .98.405c.327.405.326.566.326.89q0 .486-.329.898c-.329.412-.542.412-.968.412H2.595v22.693h22.693V16.071q0-.64.405-.969c.405-.329.567-.329.89-.329s.623.11.898.329q.412.329.412.969v12.408q0 1.052-.775 1.823c-.775.771-1.126.772-1.83.772zm6.666-10.559v-4.253q0-.535.213-1.021c.213-.486.333-.605.573-.845L23.713.739q.389-.389.862-.563c.473-.174.635-.175.957-.175q.472 0 .963.194c.491.194.624.324.892.582l2.87 2.899q.383.396.584.866c.201.47.202.632.202.956q0 .489-.197.99c-.197.501-.328.631-.589.892L16.676 21.037a2.67 2.67 0 0 1-1.866.777h-4.253q-.549 0-.924-.374c-.375-.374-.374-.557-.374-.924zm2.468-1.17h3.138l9.574-9.575-1.58-1.554-1.587-1.546-9.546 9.498z" />
        </symbol>
        <symbol id="icon-fork" viewBox="0 0 32 32">
            <title>fork</title>
            <path
                d="M7.71 30.941q-.553 0-.922-.374c-.369-.374-.369-.557-.369-.924V16.65q-2.281-.572-3.588-2.163c-1.307-1.591-1.307-2.303-1.307-3.725V1.271q0-.534.368-.902c.368-.368.545-.368.901-.368s.655.123.898.368q.365.368.365.902v8.194h2.4V1.271q0-.534.368-.902c.368-.368.545-.368.901-.368s.655.123.898.368q.365.368.365.902v8.194h2.438V1.271q0-.534.368-.902c.368-.368.546-.368.901-.368s.655.123.898.368q.365.368.365.902v9.474q0 2.141-1.317 3.719c-1.317 1.578-2.086 1.778-3.626 2.176v13.004q0 .549-.376.924c-.376.375-.56.374-.928.374zm16.161 0q-.552 0-.921-.374c-.369-.374-.369-.557-.369-.924V15.992q-2.18-.777-3.484-2.885c-1.304-2.108-1.304-3.07-1.304-4.992q0-3.384 1.783-5.75C21.359-.001 22.199 0 23.879 0q2.52 0 4.303 2.373c1.783 2.373 1.783 3.496 1.783 5.742q0 2.877-1.304 4.994c-1.304 2.117-2.027 2.385-3.475 2.924v13.611q0 .549-.381.924c-.381.375-.566.374-.933.374z" />
        </symbol>
        <symbol id="icon-google" viewBox="0 0 32 32">
            <title>google</title>
            <path
                d="M32 15.627C32 23.005 28.071 32 16.231 32 7.333 32.059.068 24.898 0 16 .068 7.102 7.333-.059 16.231 0a16.4 16.4 0 0 1 10.133 3.556.93.93 0 0 1 .338.658.98.98 0 0 1-.284.693 47 47 0 0 0-3.307 3.342.87.87 0 0 1-1.173.107 9.08 9.08 0 0 0-5.689-1.778c-5.253 0-9.511 4.258-9.511 9.511s4.258 9.511 9.511 9.511c5.333 0 7.591-2.276 8.764-6.311h-8.124A.89.89 0 0 1 16 18.4v-4.711c0-.491.398-.889.889-.889h14.222a.8.8 0 0 1 .8.711q.1 1.055.089 2.116" />
        </symbol>
        <symbol id="icon-logaut" viewBox="0 0 32 32">
            <title>logaut</title>
            <path
                d="M3.711 30.829q-1.162 0-2.015-.853c-.853-.853-.853-1.241-.853-2.015V2.879q0-1.167.853-2.022C2.549.002 2.936.001 3.711.001h11.125q.607 0 1.021.421c.414.421.413.625.413 1.031q0 .61-.413 1.018c-.413.408-.616.408-1.021.408H3.711v25.082h11.125q.607 0 1.021.416c.414.416.413.619.413 1.026q0 .61-.413 1.019c-.413.409-.616.408-1.021.408zm22.464-13.975H12.573q-.607 0-1.021-.416c-.414-.416-.413-.619-.413-1.026q0-.61.413-1.019c.413-.409.616-.408 1.021-.408H26.09l-3.239-3.239q-.429-.432-.408-1.011c.021-.579.164-.721.451-1.004q.429-.434 1.023-.429c.594.005.739.148 1.029.434l5.721 5.721q.419.433.419 1.007c0 .574-.14.717-.419 1.003l-5.679 5.679q-.421.43-1.001.413c-.58-.017-.729-.159-1.026-.445q-.413-.43-.419-1.025c-.006-.595.141-.74.435-1.027l3.197-3.207z" />
        </symbol>
        <symbol id="icon-plus" viewBox="0 0 32 32">
            <title>plus</title>
            <path
                d="M14.383 16.825v5.127q0 .509.342.853c.342.344.516.344.862.344q.519 0 .855-.34c.336-.34.336-.514.336-.859v-5.124h5.165q.509 0 .853-.342c.344-.342.344-.516.344-.862q0-.519-.34-.855c-.34-.336-.514-.336-.859-.336h-5.162V9q0-.509-.342-.853c-.342-.344-.516-.344-.862-.344q-.519 0-.855.34c-.336.34-.336.514-.336.859v5.429H8.991q-.509 0-.853.342c-.344.342-.344.516-.344.862q0 .519.34.855c.34.336.514.336.859.336h5.391zm1.094 14.116q-3.207 0-6.021-1.214c-2.814-1.214-3.515-1.917-4.92-3.322q-2.107-2.108-3.322-4.922C-.001 18.669 0 17.598 0 15.457q0-3.21 1.214-6.027c1.214-2.817 1.916-3.512 3.32-4.904q2.106-2.09 4.921-3.307C12.27.002 13.341 0 15.482 0q3.211 0 6.028 1.218c2.817 1.218 3.513 1.914 4.905 3.306q2.088 2.087 3.306 4.91c1.218 2.823 1.218 3.892 1.218 6.032q0 3.209-1.219 6.022c-1.219 2.813-1.915 3.513-3.307 4.912q-2.088 2.098-4.909 3.321c-2.821 1.223-3.89 1.221-6.028 1.221zm.008-2.596q5.354 0 9.103-3.762c3.749-3.762 3.749-5.551 3.749-9.128q0-5.354-3.742-9.103c-3.742-3.749-5.539-3.749-9.133-3.749q-5.34 0-9.103 3.742c-3.763 3.742-3.763 5.539-3.763 9.133q0 5.34 3.762 9.103c3.762 3.763 5.551 3.763 9.128 3.763z" />
        </symbol>
        <symbol id="icon-profile" viewBox="0 0 32 32">
            <title>profile</title>
            <path
                d="M5.674 23.946q2.39-1.657 4.744-2.544c2.354-.887 3.253-.886 5.052-.886q2.7 0 5.076.893c2.376.893 3.167 1.441 4.75 2.537q1.659-2.067 2.349-4.12c.69-2.053.691-2.82.691-4.351q0-5.48-3.694-9.176c-3.694-3.696-5.521-3.695-9.174-3.695q-5.48 0-9.176 3.695c-3.696 3.695-3.696 5.522-3.696 9.176q0 2.296.706 4.348c.706 2.052 1.261 2.742 2.373 4.123zm9.785-7.265q-2.232 0-3.749-1.525c-1.517-1.525-1.518-2.267-1.518-3.751s.508-2.733 1.525-3.748q1.526-1.523 3.756-1.523c2.23 0 2.737.51 3.749 1.53q1.518 1.53 1.518 3.755c0 2.225-.508 2.732-1.525 3.744q-1.526 1.518-3.756 1.518m.02 14.26q-3.181 0-6.003-1.216c-2.822-1.216-3.525-1.92-4.932-3.327q-2.111-2.11-3.328-4.923C-.001 18.662 0 17.597 0 15.465q0-3.187 1.218-5.995c1.218-2.808 1.921-3.51 3.326-4.915q2.107-2.108 4.921-3.331C12.279.001 13.344.001 15.476.001q3.187 0 5.995 1.223c2.808 1.223 3.51 1.926 4.915 3.331q2.108 2.108 3.331 4.917c1.223 2.809 1.223 3.87 1.223 5.991q0 3.181-1.223 6.004c-1.223 2.823-1.926 3.525-3.331 4.93q-2.107 2.108-4.917 3.326c-2.81 1.218-3.87 1.218-5.991 1.218zm-.013-2.596q2.068 0 4.023-.591c1.955-.591 2.602-1.09 3.897-2.088q-1.952-1.362-3.916-2.063c-1.964-.701-2.644-.701-4.003-.701s-2.692.234-3.999.701q-1.959.7-3.912 2.063 1.943 1.497 3.893 2.088c1.95.591 2.639.591 4.018.591zm0-14.059q1.267 0 2.073-.801c.806-.801.806-1.225.806-2.073s-.269-1.541-.806-2.078q-.805-.806-2.073-.806c-1.268 0-1.535.269-2.073.806q-.806.805-.806 2.078c0 1.273.269 1.539.806 2.073q.806.801 2.073.801" />
        </symbol>
        <symbol id="icon-right" viewBox="0 0 32 32">
            <title>right</title>
            <path stroke-width="2.667"
                d="M9.005 1.333a.9.9 0 0 1 .682.289l13.185 13.185c.144.144.211.256.242.331v.003c.039.095.063.201.063.331s-.023.236-.063.331v.003a1.1 1.1 0 0 1-.242.331l-13.25 13.25c-.207.207-.386.266-.602.258-.251-.009-.466-.094-.695-.323-.208-.208-.292-.413-.292-.682s.083-.474.292-.682l12.484-12.484L8.257 2.922c-.207-.207-.266-.384-.258-.599.009-.251.096-.468.326-.698a.9.9 0 0 1 .68-.289z" />
        </symbol>
        <symbol id="icon-sofa" viewBox="0 0 32 32">
            <title>sofa</title>
            <path
                d="M5.654 28.45q-.475 0-.829-.361c-.354-.361-.355-.519-.355-.837v-1.548h-.452q-1.674 0-2.846-1.172C0 23.36.001 22.802.001 21.686v-8.487q0-1.793 1.074-2.759c1.074-.966 1.564-.986 2.543-1.024V6.591q0-1.68 1.064-2.744c1.064-1.064 1.625-1.064 2.744-1.064H23.6q1.68 0 2.727 1.064c1.047 1.064 1.047 1.625 1.047 2.744v2.825q1.469.058 2.543 1.024c1.074.966 1.074 1.564 1.074 2.759v8.487q0 1.674-1.172 2.846c-1.172 1.172-1.73 1.172-2.846 1.172h-.452v1.548q0 .477-.355.837c-.355.36-.513.361-.83.361s-.594-.12-.83-.361a1.15 1.15 0 0 1-.355-.837v-1.548H6.847v1.551q0 .477-.36.836c-.36.359-.518.359-.834.359zm-1.637-5.115h22.957q.657 0 1.152-.498c.495-.498.495-.715.495-1.149v-8.487q0-.65-.393-1.045c-.393-.395-.611-.394-1.046-.394q-.654 0-1.046.394c-.392.394-.393.611-.393 1.045v6.213H5.247v-6.213q0-.65-.393-1.045c-.393-.395-.611-.394-1.046-.394q-.654 0-1.046.394c-.392.394-.393.611-.393 1.045v8.487q0 .652.498 1.149c.498.497.715.498 1.15.498m3.6-6.292h15.757V13.2q0-1.11.507-1.875c.507-.765.712-.917 1.123-1.221V6.592q0-.657-.391-1.048c-.391-.391-.607-.391-1.039-.391H7.417q-.643 0-1.036.391c-.393.391-.394.61-.394 1.048v3.512q.616.456 1.123 1.221c.507.765.507 1.135.507 1.875z" />
        </symbol>
        <symbol id="icon-top" viewBox="0 0 32 32">
            <title>top</title>
            <path
                d="M15.405 12.238 3.863 23.78q-.68.68-1.591.647c-.911-.033-1.138-.26-1.591-.713q-.68-.68-.68-1.625c0-.945.227-1.171.68-1.625L13.798 7.347q.68-.68 1.607-.68c.927 0 1.154.227 1.607.68l13.184 13.184q.68.68.68 1.591c0 .911-.227 1.138-.68 1.591q-.68.68-1.625.68c-.945 0-1.171-.227-1.625-.68z" />
        </symbol>
        <symbol id="icon-travel" viewBox="0 0 32 32">
            <title>travel</title>
            <path
                d="M26.343 29.371q-1.662 0-2.87-.988c-1.208-.988-1.312-1.448-1.521-2.367h-7.914q-2.544 0-4.214-1.67c-1.67-1.67-1.669-2.52-1.669-4.217q0-2.537 1.669-4.208c1.669-1.671 2.517-1.67 4.214-1.67h2.933q1.532 0 2.51-.979c.978-.979.978-1.49.978-2.511s-.326-1.858-.978-2.509q-.978-.977-2.51-.977H8.952q-.361 1.379-1.549 2.367c-1.188.988-1.743.988-2.851.988q-1.91 0-3.231-1.322C0 7.986 0 7.35 0 6.077q0-1.91 1.321-3.231c1.321-1.321 1.958-1.321 3.231-1.321q1.662 0 2.851.988c1.189.988 1.309 1.448 1.549 2.367h8.019q2.541 0 4.213 1.67c1.672 1.67 1.671 2.518 1.671 4.213s-.557 3.099-1.671 4.213q-1.67 1.67-4.213 1.67h-2.933q-1.535 0-2.511.977c-.976.977-.977 1.487-.977 2.507q0 1.54.977 2.516c.977.976 1.488.977 2.511.977h7.914q.352-1.379 1.54-2.367c1.188-.988 1.743-.988 2.851-.988q1.91 0 3.231 1.322c1.321 1.322 1.321 1.958 1.321 3.231q0 1.91-1.321 3.231c-1.321 1.321-1.958 1.321-3.231 1.321zM4.552 8.133q.876 0 1.467-.59c.591-.59.59-.883.59-1.467q0-.876-.59-1.467c-.59-.591-.883-.59-1.467-.59q-.876 0-1.467.59c-.591.59-.59.883-.59 1.467q0 .876.59 1.467c.59.591.883.59 1.467.59" />
        </symbol>
    </defs>
</svg>