<svg xmlns="http://www.w3.org/2000/svg" viewBox="0 0 32 32">
  <path fill="#33adc1" d="M31.596 15.798c0 8.725-7.073 15.798-15.798 15.798-0.328 0-0.653-0.010-0.975-0.030-1.352-0.082-2.658-0.335-3.897-0.736-0.471-0.152-0.933-0.327-1.384-0.521-5.614-2.423-9.543-8.008-9.543-14.511 0-8.725 7.073-15.798 15.798-15.798s15.798 7.073 15.798 15.798z"/>
  <path fill="#eae0d3" d="M14.823 31.566c-1.866-0.113-3.645-0.551-5.28-1.257 6.118-8.248-4.473-16.104-4.473-16.104l5.34-1.318c0-0 11.428 6.971 4.414 18.679z"/>
  <path fill="#d6c8b0" d="M10.927 30.83c-0.471-0.152-0.933-0.327-1.384-0.521 6.118-8.248-4.473-16.104-4.473-16.104l1.543-0.381c0.374 0.28 0.898 0.644 1.432 1.144 2.786 2.602 6.827 8.139 2.881 15.862z"/>
  <path fill="#eae0d3" d="M14.222 8.792c0 3.411-2.765 6.176-6.176 6.176s-6.176-2.765-6.176-6.176c0-0.509 0.061-1.004 0.178-1.477s0.287-0.925 0.505-1.348l-2.552-2.552 4.182 0.559-2.145-2.66 4.905 1.401-0.535-2.714c0 0 4.267 2.36 6.294 4.734 0.154 0.176 0.297 0.361 0.43 0.554 0.687 0.996 1.091 2.203 1.091 3.505z"/>
  <path fill="#2f373b" d="M11.365 7.532c0 0.835-0.677 1.513-1.512 1.513s-1.513-0.677-1.513-1.513c0-0.835 0.677-1.513 1.513-1.513s1.512 0.677 1.512 1.513z"/>
  <path fill="#ff648d" d="M25.542 8.53c-0.621 0.324-1.275 0.251-1.801 0.077-0.614-0.203-1.052-0.542-1.052-0.542s-2.212-2.171-0.51-3.116c0.514-0.285 0.93-0.284 1.26-0.142h0.001c0.764 0.328 1.071 1.402 1.071 1.402s0.616-1.597 1.978-1.113c1.362 0.483 0.398 2.731-0.947 3.435z"/>
  <path fill="#ea2f69" d="M23.741 8.607c-0.614-0.203-1.052-0.542-1.052-0.542s-2.212-2.171-0.51-3.116c0.514-0.285 0.93-0.284 1.26-0.142-0.753-0.042-0.777 2.733 0.302 3.801z"/>
  <path fill="#fff" d="M10.934 7.048c0 0.261-0.212 0.473-0.473 0.473s-0.473-0.212-0.473-0.473c0-0.261 0.212-0.472 0.473-0.472s0.473 0.212 0.473 0.472z"/>
  <path fill="#ff648d" d="M23.242 9.261c0 2.304-6.271 9.3-2.175 12.199 1.024 0.725 2.154 0.961 3.274 0.908 1.119 0.053 2.25-0.183 3.274-0.908 4.096-2.899-2.175-9.895-2.175-12.199z"/>
  <path fill="#ea2f69" d="M24.172 22.373c-1.065 0.023-2.132-0.225-3.105-0.913-4.097-2.899 2.175-9.895 2.175-12.199h0.672c0 2.304-2.437 9.3-0.845 12.199 0.346 0.631 0.724 0.892 1.103 0.913z"/>
  <path fill="#ea2f69" d="M24.173 22.373c0.056-0.001 0.112-0.003 0.169-0.005-0.056 0.007-0.112 0.009-0.169 0.005z"/>
  <path fill="#ea2f69" d="M24.51 22.373c-0.056 0.004-0.112 0.002-0.168-0.005 0.056 0.002 0.112 0.005 0.168 0.005z"/>
  <path fill="#ffd62c" d="M28.464 8.855l-15.63 2.584c0 0-0.546-0.827-0.744-1.924-0.177-0.978-0.077-2.171 0.933-3.181l15.441 2.521z"/>
  <path fill="#ffb92e" d="M28.464 8.855l-15.63 2.584c0 0-0.546-0.827-0.744-1.924l16.374-0.66z"/>
  <path fill="#d6c8b0" d="M8.045 14.968c-3.411 0-6.176-2.765-6.176-6.176 0-0.509 0.061-1.004 0.178-1.477s0.287-0.925 0.505-1.348l-2.552-2.552 4.182 0.559-2.145-2.66 5 2.815c0 0-3.088 1.135-3.088 4.727s4.097 6.113 4.097 6.113z"/>
</svg>